<svg width="83" height="30" viewBox="0 0 83 30" fill="none" xmlns="http://www.w3.org/2000/svg">
<path d="M24.576 19.008C24.475 19.0177 24.3733 19.0008 24.2809 18.9588C24.1885 18.9169 24.1087 18.8515 24.0495 18.7691C23.9903 18.6868 23.9538 18.5903 23.9435 18.4894C23.9332 18.3885 23.9496 18.2866 23.991 18.194L26.083 11.979C26.235 11.531 26.474 11.533 26.618 11.984L28.583 18.19C28.6221 18.2842 28.6362 18.3869 28.6241 18.4881C28.6119 18.5894 28.5738 18.6858 28.5135 18.768C28.4531 18.8503 28.3726 18.9156 28.2797 18.9576C28.1868 18.9996 28.0846 19.017 27.983 19.008H24.576ZM29.252 0.827C29.1556 0.597569 28.9963 0.400069 28.7924 0.257281C28.5886 0.114494 28.3486 0.0322381 28.1 0.0200005H24.247C23.9529 0.00370948 23.6579 0.0218322 23.368 0.0740004C23.356 0.104 23.348 0.516001 23.348 0.988001V24.175C23.3485 24.4028 23.4392 24.621 23.6001 24.7822C23.7611 24.9433 23.9792 25.0342 24.207 25.035H29.875C30.1211 25.046 30.3585 25.1298 30.5569 25.2758C30.7554 25.4218 30.9061 25.6233 30.99 25.855L31.841 28.589C31.9247 28.821 32.0753 29.0229 32.2737 29.1692C32.4722 29.3156 32.7097 29.3997 32.956 29.411H38.793C38.893 29.4213 38.994 29.4047 39.0855 29.3629C39.1769 29.3211 39.2555 29.2556 39.3132 29.1732C39.3708 29.0908 39.4053 28.9945 39.4132 28.8942C39.4211 28.7939 39.402 28.6934 39.358 28.603L29.252 0.827Z" fill="#1A1818"/>
<path d="M55.272 25.026C55.0116 25.0111 54.7578 24.9383 54.5291 24.8129C54.3004 24.6875 54.1025 24.5126 53.95 24.301L46.861 13.169C46.606 12.769 46.399 12.83 46.399 13.303V24.168C46.3985 24.3957 46.3078 24.6138 46.1468 24.7748C45.9858 24.9358 45.7677 25.0265 45.54 25.027H41.102C40.8744 25.0262 40.6564 24.9355 40.4955 24.7745C40.3345 24.6136 40.2438 24.3956 40.243 24.168V0.858999C40.2438 0.631422 40.3345 0.413392 40.4955 0.252469C40.6564 0.0915464 40.8744 0.000790665 41.102 0H44.765C45.0251 0.0151011 45.2785 0.0880155 45.5069 0.213433C45.7352 0.338851 45.9327 0.513615 46.085 0.725L53.176 11.859C53.43 12.259 53.637 12.197 53.637 11.725V0.858999C53.6378 0.631076 53.7288 0.412745 53.8902 0.251765C54.0515 0.0907857 54.2701 0.000263034 54.498 0H58.933C59.1607 0.000528212 59.3788 0.0911998 59.5398 0.252179C59.7008 0.413159 59.7915 0.631341 59.792 0.858999V24.168C59.7915 24.3957 59.7008 24.6138 59.5398 24.7748C59.3788 24.9358 59.1607 25.0265 58.933 25.027L55.272 25.026Z" fill="#1A1818"/>
<path d="M77.716 25.042C77.4556 25.0272 77.2018 24.9543 76.9732 24.8287C76.7446 24.7031 76.5471 24.5279 76.395 24.316L69.303 13.185C69.05 12.785 68.842 12.846 68.842 13.32V24.182C68.8415 24.4096 68.751 24.6277 68.5902 24.7888C68.4295 24.9499 68.2116 25.0409 67.984 25.042H63.55C63.3222 25.0412 63.1039 24.9503 62.9428 24.7892C62.7817 24.6281 62.6908 24.4098 62.69 24.182V0.875001C62.6908 0.647251 62.7817 0.429069 62.9428 0.268118C63.104 0.107167 63.3223 0.0165278 63.55 0.0160007H67.211C67.471 0.0308266 67.7244 0.103629 67.9526 0.229075C68.1809 0.354522 68.3781 0.529435 68.53 0.741L75.618 11.875C75.873 12.275 76.081 12.213 76.081 11.74V0.875001C76.0815 0.647342 76.1722 0.429158 76.3332 0.268179C76.4942 0.1072 76.7123 0.016529 76.94 0.0160007H81.38C81.6075 0.0170528 81.8254 0.107892 81.9862 0.268758C82.1471 0.429624 82.2379 0.647504 82.239 0.875001V24.182C82.2382 24.4097 82.1475 24.6278 81.9866 24.7889C81.8257 24.95 81.6077 25.0409 81.38 25.042H77.716Z" fill="#1A1818"/>
<path d="M14.813 25.042C14.5556 25.0275 14.3053 24.9519 14.0829 24.8215C13.8605 24.6911 13.6723 24.5096 13.534 24.292L8.611 15.528C8.57071 15.4356 8.50657 15.3556 8.42516 15.2962C8.34375 15.2368 8.248 15.2002 8.14774 15.19C8.04748 15.1798 7.94631 15.1965 7.85463 15.2383C7.76294 15.2801 7.68403 15.3456 7.626 15.428L6.644 16.557C6.30592 16.9895 6.10934 17.5157 6.081 18.064V24.182C6.08047 24.4099 5.9897 24.6284 5.82853 24.7895C5.66736 24.9507 5.44892 25.0415 5.221 25.042H0.859C0.631331 25.0409 0.413302 24.95 0.252407 24.7889C0.0915125 24.6278 0.000789004 24.4097 0 24.182V0.875001C0.000790665 0.647423 0.0915464 0.429392 0.252469 0.268469C0.413392 0.107546 0.631423 0.0167914 0.859 0.0160007H5.22C5.44775 0.0165278 5.66604 0.107167 5.82718 0.268118C5.98831 0.429069 6.07921 0.647251 6.08 0.875001V8.014C6.08 8.487 6.324 8.574 6.622 8.208L12.774 0.68C13.1368 0.285337 13.6388 0.047224 14.174 0.0160007H19.98C20.453 0.0160007 20.59 0.316001 20.285 0.672001L12.851 9.482C12.6994 9.67963 12.6078 9.91664 12.5871 10.1648C12.5664 10.413 12.6173 10.662 12.734 10.882L20.687 24.303C20.927 24.71 20.738 25.043 20.266 25.043L14.813 25.042Z" fill="#1A1818"/>
</svg>
