<svg width="1420" height="60" viewBox="0 0 1420 60" fill="none" xmlns="http://www.w3.org/2000/svg">
<path d="M107.64 31.8979C107.64 31.5317 107.5 31.2485 107.222 31.0483C106.949 30.8433 106.468 30.6675 105.779 30.521C105.096 30.3745 104.551 30.1987 104.146 29.9937C103.746 29.7886 103.448 29.5444 103.252 29.2612C103.062 28.978 102.967 28.6411 102.967 28.2505C102.967 27.6011 103.24 27.0518 103.787 26.6025C104.339 26.1533 105.042 25.9287 105.896 25.9287C106.795 25.9287 107.522 26.1606 108.079 26.6245C108.641 27.0884 108.921 27.6816 108.921 28.4043H107.559C107.559 28.0332 107.4 27.7134 107.083 27.4448C106.771 27.1763 106.375 27.042 105.896 27.042C105.403 27.042 105.018 27.1494 104.739 27.3643C104.461 27.5791 104.322 27.8599 104.322 28.2065C104.322 28.5337 104.451 28.7803 104.71 28.9463C104.969 29.1123 105.435 29.271 106.109 29.4224C106.788 29.5737 107.337 29.7544 107.757 29.9644C108.177 30.1743 108.487 30.4282 108.687 30.7261C108.892 31.019 108.995 31.3779 108.995 31.8027C108.995 32.5107 108.711 33.0796 108.145 33.5093C107.579 33.9341 106.844 34.1465 105.94 34.1465C105.306 34.1465 104.744 34.0342 104.256 33.8096C103.768 33.585 103.384 33.2725 103.106 32.8721C102.833 32.4668 102.696 32.0298 102.696 31.561H104.051C104.075 32.0151 104.256 32.3765 104.593 32.645C104.935 32.9087 105.384 33.0405 105.94 33.0405C106.453 33.0405 106.863 32.938 107.171 32.7329C107.483 32.5229 107.64 32.2446 107.64 31.8979ZM112.115 27.0347C112.715 26.2974 113.497 25.9287 114.458 25.9287C116.133 25.9287 116.978 26.8735 116.993 28.7632V34H115.638V28.7559C115.633 28.1846 115.501 27.7622 115.242 27.4888C114.988 27.2153 114.59 27.0786 114.048 27.0786C113.609 27.0786 113.223 27.1958 112.891 27.4302C112.559 27.6646 112.3 27.9722 112.115 28.353V34H110.76V22.75H112.115V27.0347ZM118.663 29.9644C118.663 29.188 118.814 28.4897 119.117 27.8696C119.424 27.2495 119.849 26.771 120.391 26.4341C120.938 26.0972 121.561 25.9287 122.259 25.9287C123.338 25.9287 124.209 26.3022 124.874 27.0493C125.542 27.7964 125.877 28.79 125.877 30.0303V30.1255C125.877 30.897 125.728 31.5903 125.43 32.2056C125.137 32.8159 124.715 33.292 124.163 33.6338C123.616 33.9756 122.986 34.1465 122.273 34.1465C121.199 34.1465 120.328 33.7729 119.659 33.0259C118.995 32.2788 118.663 31.29 118.663 30.0596V29.9644ZM120.025 30.1255C120.025 31.0044 120.228 31.71 120.633 32.2422C121.043 32.7744 121.59 33.0405 122.273 33.0405C122.962 33.0405 123.509 32.772 123.914 32.2349C124.319 31.6929 124.522 30.936 124.522 29.9644C124.522 29.0952 124.314 28.3921 123.899 27.855C123.489 27.313 122.942 27.042 122.259 27.042C121.59 27.042 121.05 27.3081 120.64 27.8403C120.23 28.3726 120.025 29.1343 120.025 30.1255ZM134.271 30.1255C134.271 31.3315 133.995 32.3032 133.443 33.0405C132.891 33.7778 132.144 34.1465 131.202 34.1465C130.24 34.1465 129.483 33.8413 128.931 33.231V37.0469H127.576V26.0752H128.814L128.88 26.9541C129.432 26.2705 130.198 25.9287 131.18 25.9287C132.132 25.9287 132.884 26.2876 133.436 27.0054C133.992 27.7231 134.271 28.7217 134.271 30.001V30.1255ZM132.916 29.9717C132.916 29.0781 132.725 28.3726 132.344 27.855C131.963 27.3374 131.441 27.0786 130.777 27.0786C129.957 27.0786 129.341 27.4424 128.931 28.1699V31.9565C129.336 32.6792 129.957 33.0405 130.792 33.0405C131.441 33.0405 131.956 32.7842 132.337 32.2715C132.723 31.7539 132.916 30.9873 132.916 29.9717Z" fill="#1A1818"/>
<path d="M160.72 30.1255C160.72 31.3315 160.444 32.3032 159.892 33.0405C159.34 33.7778 158.593 34.1465 157.651 34.1465C156.689 34.1465 155.932 33.8413 155.38 33.231V37.0469H154.025V26.0752H155.263L155.329 26.9541C155.881 26.2705 156.647 25.9287 157.629 25.9287C158.581 25.9287 159.333 26.2876 159.885 27.0054C160.441 27.7231 160.72 28.7217 160.72 30.001V30.1255ZM159.365 29.9717C159.365 29.0781 159.174 28.3726 158.793 27.855C158.413 27.3374 157.89 27.0786 157.226 27.0786C156.406 27.0786 155.791 27.4424 155.38 28.1699V31.9565C155.786 32.6792 156.406 33.0405 157.241 33.0405C157.89 33.0405 158.405 32.7842 158.786 32.2715C159.172 31.7539 159.365 30.9873 159.365 29.9717ZM166.279 27.291C166.074 27.2568 165.852 27.2397 165.612 27.2397C164.724 27.2397 164.121 27.6182 163.803 28.375V34H162.448V26.0752H163.767L163.789 26.9907C164.233 26.2827 164.863 25.9287 165.678 25.9287C165.942 25.9287 166.142 25.9629 166.279 26.0312V27.291ZM167.026 29.9644C167.026 29.188 167.177 28.4897 167.48 27.8696C167.788 27.2495 168.212 26.771 168.754 26.4341C169.301 26.0972 169.924 25.9287 170.622 25.9287C171.701 25.9287 172.573 26.3022 173.237 27.0493C173.906 27.7964 174.24 28.79 174.24 30.0303V30.1255C174.24 30.897 174.091 31.5903 173.793 32.2056C173.5 32.8159 173.078 33.292 172.526 33.6338C171.979 33.9756 171.35 34.1465 170.637 34.1465C169.562 34.1465 168.691 33.7729 168.022 33.0259C167.358 32.2788 167.026 31.29 167.026 30.0596V29.9644ZM168.388 30.1255C168.388 31.0044 168.591 31.71 168.996 32.2422C169.406 32.7744 169.953 33.0405 170.637 33.0405C171.325 33.0405 171.872 32.772 172.277 32.2349C172.683 31.6929 172.885 30.936 172.885 29.9644C172.885 29.0952 172.678 28.3921 172.263 27.855C171.853 27.313 171.306 27.042 170.622 27.042C169.953 27.042 169.414 27.3081 169.003 27.8403C168.593 28.3726 168.388 29.1343 168.388 30.1255ZM177.338 26.0752V34.9155C177.338 36.439 176.647 37.2007 175.266 37.2007C174.968 37.2007 174.692 37.1567 174.438 37.0688V35.9849C174.594 36.0239 174.799 36.0435 175.053 36.0435C175.356 36.0435 175.585 35.9604 175.742 35.7944C175.903 35.6333 175.983 35.3501 175.983 34.9448V26.0752H177.338ZM175.844 23.9731C175.844 23.7583 175.91 23.5752 176.042 23.4238C176.179 23.2676 176.376 23.1895 176.635 23.1895C176.899 23.1895 177.099 23.2651 177.236 23.4165C177.373 23.5679 177.441 23.7534 177.441 23.9731C177.441 24.1929 177.373 24.376 177.236 24.5225C177.099 24.6689 176.899 24.7422 176.635 24.7422C176.372 24.7422 176.174 24.6689 176.042 24.5225C175.91 24.376 175.844 24.1929 175.844 23.9731ZM182.817 34.1465C181.743 34.1465 180.869 33.7949 180.195 33.0918C179.521 32.3838 179.184 31.439 179.184 30.2573V30.0083C179.184 29.2222 179.333 28.5215 179.631 27.9062C179.934 27.2861 180.354 26.8027 180.891 26.4561C181.433 26.1045 182.019 25.9287 182.648 25.9287C183.679 25.9287 184.479 26.2681 185.051 26.9468C185.622 27.6255 185.908 28.5972 185.908 29.8618V30.4258H180.539C180.559 31.207 180.786 31.8394 181.22 32.3228C181.66 32.8013 182.216 33.0405 182.89 33.0405C183.369 33.0405 183.774 32.9429 184.106 32.7476C184.438 32.5522 184.729 32.2935 184.978 31.9712L185.805 32.6157C185.141 33.6362 184.145 34.1465 182.817 34.1465ZM182.648 27.042C182.102 27.042 181.643 27.2422 181.271 27.6426C180.9 28.0381 180.671 28.5947 180.583 29.3125H184.553V29.21C184.514 28.5215 184.328 27.9893 183.996 27.6133C183.664 27.2324 183.215 27.042 182.648 27.042ZM189.321 24.1562V26.0752H190.8V27.1226H189.321V32.0371C189.321 32.3545 189.387 32.5938 189.519 32.7549C189.65 32.9111 189.875 32.9893 190.192 32.9893C190.349 32.9893 190.563 32.96 190.837 32.9014V34C190.48 34.0977 190.134 34.1465 189.797 34.1465C189.191 34.1465 188.735 33.9634 188.427 33.5972C188.12 33.231 187.966 32.7109 187.966 32.0371V27.1226H186.523V26.0752H187.966V24.1562H189.321ZM197.004 31.8979C197.004 31.5317 196.865 31.2485 196.586 31.0483C196.313 30.8433 195.832 30.6675 195.144 30.521C194.46 30.3745 193.916 30.1987 193.51 29.9937C193.11 29.7886 192.812 29.5444 192.617 29.2612C192.426 28.978 192.331 28.6411 192.331 28.2505C192.331 27.6011 192.604 27.0518 193.151 26.6025C193.703 26.1533 194.406 25.9287 195.261 25.9287C196.159 25.9287 196.887 26.1606 197.443 26.6245C198.005 27.0884 198.286 27.6816 198.286 28.4043H196.923C196.923 28.0332 196.765 27.7134 196.447 27.4448C196.135 27.1763 195.739 27.042 195.261 27.042C194.768 27.042 194.382 27.1494 194.104 27.3643C193.825 27.5791 193.686 27.8599 193.686 28.2065C193.686 28.5337 193.815 28.7803 194.074 28.9463C194.333 29.1123 194.799 29.271 195.473 29.4224C196.152 29.5737 196.701 29.7544 197.121 29.9644C197.541 30.1743 197.851 30.4282 198.051 30.7261C198.256 31.019 198.359 31.3779 198.359 31.8027C198.359 32.5107 198.076 33.0796 197.509 33.5093C196.943 33.9341 196.208 34.1465 195.305 34.1465C194.67 34.1465 194.108 34.0342 193.62 33.8096C193.132 33.585 192.749 33.2725 192.47 32.8721C192.197 32.4668 192.06 32.0298 192.06 31.561H193.415C193.439 32.0151 193.62 32.3765 193.957 32.645C194.299 32.9087 194.748 33.0405 195.305 33.0405C195.817 33.0405 196.228 32.938 196.535 32.7329C196.848 32.5229 197.004 32.2446 197.004 31.8979Z" fill="#1A1818"/>
<path d="M219.263 25.6035V33.8545C219.263 35.2764 218.618 35.9873 217.328 35.9873C217.05 35.9873 216.793 35.9463 216.556 35.8643V34.8525C216.701 34.889 216.893 34.9072 217.13 34.9072C217.412 34.9072 217.627 34.8298 217.772 34.6748C217.923 34.5244 217.998 34.2601 217.998 33.8818V25.6035H219.263ZM217.868 23.6416C217.868 23.4411 217.93 23.2702 218.053 23.1289C218.18 22.9831 218.365 22.9102 218.606 22.9102C218.853 22.9102 219.039 22.9808 219.167 23.1221C219.295 23.2633 219.358 23.4365 219.358 23.6416C219.358 23.8467 219.295 24.0176 219.167 24.1543C219.039 24.291 218.853 24.3594 218.606 24.3594C218.36 24.3594 218.176 24.291 218.053 24.1543C217.93 24.0176 217.868 23.8467 217.868 23.6416ZM220.972 29.2334C220.972 28.5088 221.113 27.8571 221.396 27.2783C221.683 26.6995 222.079 26.2529 222.585 25.9385C223.095 25.624 223.676 25.4668 224.328 25.4668C225.335 25.4668 226.149 25.8154 226.769 26.5127C227.393 27.21 227.705 28.1374 227.705 29.2949V29.3838C227.705 30.1038 227.566 30.751 227.288 31.3252C227.015 31.8949 226.62 32.3392 226.105 32.6582C225.595 32.9772 225.007 33.1367 224.342 33.1367C223.339 33.1367 222.526 32.7881 221.901 32.0908C221.282 31.3936 220.972 30.4707 220.972 29.3223V29.2334ZM222.243 29.3838C222.243 30.2041 222.432 30.8626 222.811 31.3594C223.193 31.8561 223.704 32.1045 224.342 32.1045C224.984 32.1045 225.495 31.8538 225.873 31.3525C226.251 30.8467 226.44 30.1403 226.44 29.2334C226.44 28.4222 226.247 27.766 225.859 27.2646C225.477 26.7588 224.966 26.5059 224.328 26.5059C223.704 26.5059 223.2 26.7542 222.817 27.251C222.435 27.7477 222.243 28.4587 222.243 29.3838ZM233.857 32.2686C233.365 32.8473 232.643 33.1367 231.69 33.1367C230.902 33.1367 230.3 32.9089 229.886 32.4531C229.476 31.9928 229.268 31.3138 229.264 30.416V25.6035H230.528V30.3818C230.528 31.5029 230.984 32.0635 231.896 32.0635C232.862 32.0635 233.504 31.7035 233.823 30.9834V25.6035H235.088V33H233.885L233.857 32.2686ZM240.591 26.7383C240.399 26.7064 240.192 26.6904 239.969 26.6904C239.139 26.6904 238.576 27.0436 238.28 27.75V33H237.016V25.6035H238.246L238.267 26.458C238.681 25.7972 239.269 25.4668 240.03 25.4668C240.276 25.4668 240.463 25.4987 240.591 25.5625V26.7383ZM242.956 25.6035L242.997 26.5332C243.562 25.8223 244.3 25.4668 245.212 25.4668C246.775 25.4668 247.563 26.3486 247.577 28.1123V33H246.312V28.1055C246.308 27.5723 246.185 27.1781 245.943 26.9229C245.706 26.6676 245.335 26.54 244.829 26.54C244.419 26.54 244.059 26.6494 243.749 26.8682C243.439 27.0869 243.198 27.374 243.024 27.7295V33H241.76V25.6035H242.956ZM254.051 33C253.978 32.8542 253.919 32.5944 253.873 32.2207C253.285 32.8314 252.583 33.1367 251.768 33.1367C251.038 33.1367 250.439 32.9316 249.97 32.5215C249.505 32.1068 249.272 31.5827 249.272 30.9492C249.272 30.179 249.564 29.582 250.147 29.1582C250.735 28.7298 251.56 28.5156 252.622 28.5156H253.853V27.9346C253.853 27.4925 253.72 27.1416 253.456 26.8818C253.192 26.6175 252.802 26.4854 252.287 26.4854C251.836 26.4854 251.458 26.5993 251.152 26.8271C250.847 27.055 250.694 27.3307 250.694 27.6543H249.423C249.423 27.2852 249.553 26.9297 249.812 26.5879C250.077 26.2415 250.432 25.9681 250.879 25.7676C251.33 25.5671 251.825 25.4668 252.362 25.4668C253.215 25.4668 253.882 25.681 254.365 26.1094C254.848 26.5332 255.099 27.1188 255.117 27.8662V31.2705C255.117 31.9495 255.204 32.4896 255.377 32.8906V33H254.051ZM251.952 32.0361C252.349 32.0361 252.725 31.9336 253.08 31.7285C253.436 31.5234 253.693 31.2568 253.853 30.9287V29.4111H252.861C251.312 29.4111 250.537 29.8646 250.537 30.7715C250.537 31.168 250.669 31.4779 250.934 31.7012C251.198 31.9245 251.537 32.0361 251.952 32.0361ZM258.474 33H257.209V22.5H258.474V33Z" fill="#1A1818"/>
<path d="M283.918 34C283.84 33.8438 283.776 33.5654 283.728 33.165C283.098 33.8193 282.346 34.1465 281.472 34.1465C280.69 34.1465 280.048 33.9268 279.545 33.4873C279.047 33.043 278.798 32.4814 278.798 31.8027C278.798 30.9775 279.111 30.3379 279.736 29.8838C280.366 29.4248 281.25 29.1953 282.387 29.1953H283.706V28.5728C283.706 28.0991 283.564 27.7231 283.281 27.4448C282.998 27.1616 282.58 27.02 282.028 27.02C281.545 27.02 281.14 27.1421 280.812 27.3862C280.485 27.6304 280.322 27.9258 280.322 28.2725H278.959C278.959 27.877 279.099 27.4961 279.377 27.1299C279.66 26.7588 280.041 26.4658 280.52 26.251C281.003 26.0361 281.533 25.9287 282.109 25.9287C283.022 25.9287 283.737 26.1582 284.255 26.6172C284.772 27.0713 285.041 27.6987 285.061 28.4995V32.147C285.061 32.8745 285.153 33.4531 285.339 33.8828V34H283.918ZM281.669 32.9673C282.094 32.9673 282.497 32.8574 282.878 32.6377C283.259 32.418 283.535 32.1323 283.706 31.7808V30.1548H282.644C280.983 30.1548 280.153 30.6406 280.153 31.6123C280.153 32.0371 280.295 32.3691 280.578 32.6084C280.861 32.8477 281.225 32.9673 281.669 32.9673ZM283.032 24.9033H281.867L279.978 22.75H281.611L283.032 24.9033ZM297.6 30.1255C297.6 31.3315 297.324 32.3032 296.772 33.0405C296.22 33.7778 295.473 34.1465 294.531 34.1465C293.569 34.1465 292.812 33.8413 292.26 33.231V37.0469H290.905V26.0752H292.143L292.209 26.9541C292.761 26.2705 293.527 25.9287 294.509 25.9287C295.461 25.9287 296.213 26.2876 296.765 27.0054C297.321 27.7231 297.6 28.7217 297.6 30.001V30.1255ZM296.245 29.9717C296.245 29.0781 296.054 28.3726 295.673 27.855C295.292 27.3374 294.77 27.0786 294.106 27.0786C293.286 27.0786 292.67 27.4424 292.26 28.1699V31.9565C292.666 32.6792 293.286 33.0405 294.121 33.0405C294.77 33.0405 295.285 32.7842 295.666 32.2715C296.052 31.7539 296.245 30.9873 296.245 29.9717ZM303.159 27.291C302.954 27.2568 302.731 27.2397 302.492 27.2397C301.604 27.2397 301 27.6182 300.683 28.375V34H299.328V26.0752H300.646L300.668 26.9907C301.113 26.2827 301.743 25.9287 302.558 25.9287C302.822 25.9287 303.022 25.9629 303.159 26.0312V27.291ZM303.906 29.9644C303.906 29.188 304.057 28.4897 304.36 27.8696C304.667 27.2495 305.092 26.771 305.634 26.4341C306.181 26.0972 306.804 25.9287 307.502 25.9287C308.581 25.9287 309.453 26.3022 310.117 27.0493C310.786 27.7964 311.12 28.79 311.12 30.0303V30.1255C311.12 30.897 310.971 31.5903 310.673 32.2056C310.38 32.8159 309.958 33.292 309.406 33.6338C308.859 33.9756 308.229 34.1465 307.517 34.1465C306.442 34.1465 305.571 33.7729 304.902 33.0259C304.238 32.2788 303.906 31.29 303.906 30.0596V29.9644ZM305.268 30.1255C305.268 31.0044 305.471 31.71 305.876 32.2422C306.286 32.7744 306.833 33.0405 307.517 33.0405C308.205 33.0405 308.752 32.772 309.157 32.2349C309.562 31.6929 309.765 30.936 309.765 29.9644C309.765 29.0952 309.558 28.3921 309.143 27.855C308.732 27.313 308.186 27.042 307.502 27.042C306.833 27.042 306.293 27.3081 305.883 27.8403C305.473 28.3726 305.268 29.1343 305.268 30.1255ZM319.514 30.1255C319.514 31.3315 319.238 32.3032 318.686 33.0405C318.134 33.7778 317.387 34.1465 316.445 34.1465C315.483 34.1465 314.726 33.8413 314.174 33.231V37.0469H312.819V26.0752H314.057L314.123 26.9541C314.675 26.2705 315.441 25.9287 316.423 25.9287C317.375 25.9287 318.127 26.2876 318.679 27.0054C319.235 27.7231 319.514 28.7217 319.514 30.001V30.1255ZM318.159 29.9717C318.159 29.0781 317.968 28.3726 317.587 27.855C317.207 27.3374 316.684 27.0786 316.02 27.0786C315.2 27.0786 314.584 27.4424 314.174 28.1699V31.9565C314.58 32.6792 315.2 33.0405 316.035 33.0405C316.684 33.0405 317.199 32.7842 317.58 32.2715C317.966 31.7539 318.159 30.9873 318.159 29.9717ZM320.883 29.9644C320.883 29.188 321.035 28.4897 321.337 27.8696C321.645 27.2495 322.07 26.771 322.612 26.4341C323.159 26.0972 323.781 25.9287 324.479 25.9287C325.559 25.9287 326.43 26.3022 327.094 27.0493C327.763 27.7964 328.098 28.79 328.098 30.0303V30.1255C328.098 30.897 327.949 31.5903 327.651 32.2056C327.358 32.8159 326.936 33.292 326.384 33.6338C325.837 33.9756 325.207 34.1465 324.494 34.1465C323.42 34.1465 322.548 33.7729 321.879 33.0259C321.215 32.2788 320.883 31.29 320.883 30.0596V29.9644ZM322.246 30.1255C322.246 31.0044 322.448 31.71 322.854 32.2422C323.264 32.7744 323.811 33.0405 324.494 33.0405C325.183 33.0405 325.729 32.772 326.135 32.2349C326.54 31.6929 326.743 30.936 326.743 29.9644C326.743 29.0952 326.535 28.3921 326.12 27.855C325.71 27.313 325.163 27.042 324.479 27.042C323.811 27.042 323.271 27.3081 322.861 27.8403C322.451 28.3726 322.246 29.1343 322.246 30.1255ZM334.411 31.8979C334.411 31.5317 334.272 31.2485 333.994 31.0483C333.72 30.8433 333.239 30.6675 332.551 30.521C331.867 30.3745 331.323 30.1987 330.917 29.9937C330.517 29.7886 330.219 29.5444 330.024 29.2612C329.833 28.978 329.738 28.6411 329.738 28.2505C329.738 27.6011 330.012 27.0518 330.559 26.6025C331.11 26.1533 331.813 25.9287 332.668 25.9287C333.566 25.9287 334.294 26.1606 334.851 26.6245C335.412 27.0884 335.693 27.6816 335.693 28.4043H334.331C334.331 28.0332 334.172 27.7134 333.854 27.4448C333.542 27.1763 333.146 27.042 332.668 27.042C332.175 27.042 331.789 27.1494 331.511 27.3643C331.232 27.5791 331.093 27.8599 331.093 28.2065C331.093 28.5337 331.223 28.7803 331.481 28.9463C331.74 29.1123 332.207 29.271 332.88 29.4224C333.559 29.5737 334.108 29.7544 334.528 29.9644C334.948 30.1743 335.258 30.4282 335.458 30.7261C335.664 31.019 335.766 31.3779 335.766 31.8027C335.766 32.5107 335.483 33.0796 334.917 33.5093C334.35 33.9341 333.615 34.1465 332.712 34.1465C332.077 34.1465 331.516 34.0342 331.027 33.8096C330.539 33.585 330.156 33.2725 329.877 32.8721C329.604 32.4668 329.467 32.0298 329.467 31.561H330.822C330.847 32.0151 331.027 32.3765 331.364 32.645C331.706 32.9087 332.155 33.0405 332.712 33.0405C333.225 33.0405 333.635 32.938 333.942 32.7329C334.255 32.5229 334.411 32.2446 334.411 31.8979Z" fill="#1A1818"/>
<path d="M1134.86 27.291C1134.65 27.2568 1134.43 27.2397 1134.19 27.2397C1133.3 27.2397 1132.7 27.6182 1132.38 28.375V34H1131.03V26.0752H1132.34L1132.37 26.9907C1132.81 26.2827 1133.44 25.9287 1134.26 25.9287C1134.52 25.9287 1134.72 25.9629 1134.86 26.0312V27.291ZM1139.25 34.1465C1138.18 34.1465 1137.3 33.7949 1136.63 33.0918C1135.95 32.3838 1135.62 31.439 1135.62 30.2573V30.0083C1135.62 29.2222 1135.77 28.5215 1136.06 27.9062C1136.37 27.2861 1136.79 26.8027 1137.32 26.4561C1137.87 26.1045 1138.45 25.9287 1139.08 25.9287C1140.11 25.9287 1140.91 26.2681 1141.48 26.9468C1142.06 27.6255 1142.34 28.5972 1142.34 29.8618V30.4258H1136.97C1136.99 31.207 1137.22 31.8394 1137.65 32.3228C1138.09 32.8013 1138.65 33.0405 1139.32 33.0405C1139.8 33.0405 1140.21 32.9429 1140.54 32.7476C1140.87 32.5522 1141.16 32.2935 1141.41 31.9712L1142.24 32.6157C1141.57 33.6362 1140.58 34.1465 1139.25 34.1465ZM1139.08 27.042C1138.54 27.042 1138.08 27.2422 1137.71 27.6426C1137.33 28.0381 1137.1 28.5947 1137.02 29.3125H1140.99V29.21C1140.95 28.5215 1140.76 27.9893 1140.43 27.6133C1140.1 27.2324 1139.65 27.042 1139.08 27.042ZM1147.09 33.0405C1147.58 33.0405 1148 32.894 1148.36 32.6011C1148.72 32.3081 1148.92 31.9419 1148.96 31.5024H1150.24C1150.22 31.9565 1150.06 32.3887 1149.78 32.7988C1149.49 33.209 1149.1 33.5361 1148.62 33.7803C1148.14 34.0244 1147.63 34.1465 1147.09 34.1465C1146.02 34.1465 1145.16 33.7876 1144.52 33.0698C1143.88 32.3472 1143.56 31.3608 1143.56 30.1108V29.8838C1143.56 29.1123 1143.71 28.4263 1143.99 27.8257C1144.27 27.2251 1144.68 26.7588 1145.21 26.4268C1145.74 26.0947 1146.36 25.9287 1147.09 25.9287C1147.98 25.9287 1148.71 26.1948 1149.3 26.7271C1149.89 27.2593 1150.21 27.9502 1150.24 28.7998H1148.96C1148.92 28.2871 1148.73 27.8672 1148.38 27.54C1148.03 27.208 1147.6 27.042 1147.09 27.042C1146.4 27.042 1145.86 27.291 1145.48 27.7891C1145.11 28.2822 1144.92 28.9976 1144.92 29.9351V30.1914C1144.92 31.1045 1145.11 31.8076 1145.48 32.3008C1145.86 32.7939 1146.4 33.0405 1147.09 33.0405ZM1153.12 27.0347C1153.72 26.2974 1154.5 25.9287 1155.47 25.9287C1157.14 25.9287 1157.99 26.8735 1158 28.7632V34H1156.65V28.7559C1156.64 28.1846 1156.51 27.7622 1156.25 27.4888C1156 27.2153 1155.6 27.0786 1155.06 27.0786C1154.62 27.0786 1154.23 27.1958 1153.9 27.4302C1153.57 27.6646 1153.31 27.9722 1153.12 28.353V34H1151.77V22.75H1153.12V27.0347ZM1163.32 34.1465C1162.24 34.1465 1161.37 33.7949 1160.7 33.0918C1160.02 32.3838 1159.69 31.439 1159.69 30.2573V30.0083C1159.69 29.2222 1159.83 28.5215 1160.13 27.9062C1160.43 27.2861 1160.85 26.8027 1161.39 26.4561C1161.93 26.1045 1162.52 25.9287 1163.15 25.9287C1164.18 25.9287 1164.98 26.2681 1165.55 26.9468C1166.12 27.6255 1166.41 28.5972 1166.41 29.8618V30.4258H1161.04C1161.06 31.207 1161.29 31.8394 1161.72 32.3228C1162.16 32.8013 1162.72 33.0405 1163.39 33.0405C1163.87 33.0405 1164.27 32.9429 1164.61 32.7476C1164.94 32.5522 1165.23 32.2935 1165.48 31.9712L1166.31 32.6157C1165.64 33.6362 1164.65 34.1465 1163.32 34.1465ZM1163.15 27.042C1162.6 27.042 1162.14 27.2422 1161.77 27.6426C1161.4 28.0381 1161.17 28.5947 1161.08 29.3125H1165.05V29.21C1165.01 28.5215 1164.83 27.9893 1164.5 27.6133C1164.17 27.2324 1163.72 27.042 1163.15 27.042ZM1171.81 27.291C1171.61 27.2568 1171.39 27.2397 1171.15 27.2397C1170.26 27.2397 1169.66 27.6182 1169.34 28.375V34H1167.98V26.0752H1169.3L1169.32 26.9907C1169.77 26.2827 1170.4 25.9287 1171.21 25.9287C1171.48 25.9287 1171.68 25.9629 1171.81 26.0312V27.291ZM1176.1 33.0405C1176.58 33.0405 1177 32.894 1177.37 32.6011C1177.73 32.3081 1177.93 31.9419 1177.97 31.5024H1179.25C1179.22 31.9565 1179.07 32.3887 1178.78 32.7988C1178.49 33.209 1178.11 33.5361 1177.62 33.7803C1177.14 34.0244 1176.64 34.1465 1176.1 34.1465C1175.02 34.1465 1174.16 33.7876 1173.52 33.0698C1172.89 32.3472 1172.57 31.3608 1172.57 30.1108V29.8838C1172.57 29.1123 1172.71 28.4263 1172.99 27.8257C1173.28 27.2251 1173.68 26.7588 1174.21 26.4268C1174.74 26.0947 1175.37 25.9287 1176.09 25.9287C1176.98 25.9287 1177.72 26.1948 1178.3 26.7271C1178.89 27.2593 1179.21 27.9502 1179.25 28.7998H1177.97C1177.93 28.2871 1177.73 27.8672 1177.38 27.54C1177.03 27.208 1176.6 27.042 1176.09 27.042C1175.4 27.042 1174.87 27.291 1174.49 27.7891C1174.11 28.2822 1173.92 28.9976 1173.92 29.9351V30.1914C1173.92 31.1045 1174.11 31.8076 1174.49 32.3008C1174.86 32.7939 1175.4 33.0405 1176.1 33.0405ZM1182.13 27.0347C1182.73 26.2974 1183.51 25.9287 1184.47 25.9287C1186.15 25.9287 1186.99 26.8735 1187 28.7632V34H1185.65V28.7559C1185.64 28.1846 1185.51 27.7622 1185.25 27.4888C1185 27.2153 1184.6 27.0786 1184.06 27.0786C1183.62 27.0786 1183.23 27.1958 1182.9 27.4302C1182.57 27.6646 1182.31 27.9722 1182.13 28.353V34H1180.77V22.75H1182.13V27.0347ZM1192.32 34.1465C1191.25 34.1465 1190.37 33.7949 1189.7 33.0918C1189.03 32.3838 1188.69 31.439 1188.69 30.2573V30.0083C1188.69 29.2222 1188.84 28.5215 1189.14 27.9062C1189.44 27.2861 1189.86 26.8027 1190.4 26.4561C1190.94 26.1045 1191.52 25.9287 1192.15 25.9287C1193.18 25.9287 1193.98 26.2681 1194.56 26.9468C1195.13 27.6255 1195.41 28.5972 1195.41 29.8618V30.4258H1190.04C1190.06 31.207 1190.29 31.8394 1190.73 32.3228C1191.16 32.8013 1191.72 33.0405 1192.4 33.0405C1192.87 33.0405 1193.28 32.9429 1193.61 32.7476C1193.94 32.5522 1194.23 32.2935 1194.48 31.9712L1195.31 32.6157C1194.65 33.6362 1193.65 34.1465 1192.32 34.1465ZM1192.15 27.042C1191.61 27.042 1191.15 27.2422 1190.78 27.6426C1190.41 28.0381 1190.18 28.5947 1190.09 29.3125H1194.06V29.21C1194.02 28.5215 1193.83 27.9893 1193.5 27.6133C1193.17 27.2324 1192.72 27.042 1192.15 27.042ZM1200.82 27.291C1200.61 27.2568 1200.39 27.2397 1200.15 27.2397C1199.26 27.2397 1198.66 27.6182 1198.34 28.375V34H1196.99V26.0752H1198.31L1198.33 26.9907C1198.77 26.2827 1199.4 25.9287 1200.22 25.9287C1200.48 25.9287 1200.68 25.9629 1200.82 26.0312V27.291Z" fill="#1A1818"/>
<path d="M1229.72 30.1255C1229.72 31.3315 1229.44 32.3032 1228.89 33.0405C1228.34 33.7778 1227.59 34.1465 1226.65 34.1465C1225.69 34.1465 1224.93 33.8413 1224.38 33.231V37.0469H1223.03V26.0752H1224.26L1224.33 26.9541C1224.88 26.2705 1225.65 25.9287 1226.63 25.9287C1227.58 25.9287 1228.33 26.2876 1228.88 27.0054C1229.44 27.7231 1229.72 28.7217 1229.72 30.001V30.1255ZM1228.36 29.9717C1228.36 29.0781 1228.17 28.3726 1227.79 27.855C1227.41 27.3374 1226.89 27.0786 1226.23 27.0786C1225.41 27.0786 1224.79 27.4424 1224.38 28.1699V31.9565C1224.79 32.6792 1225.41 33.0405 1226.24 33.0405C1226.89 33.0405 1227.41 32.7842 1227.79 32.2715C1228.17 31.7539 1228.36 30.9873 1228.36 29.9717ZM1231.09 29.9644C1231.09 29.188 1231.24 28.4897 1231.54 27.8696C1231.85 27.2495 1232.28 26.771 1232.82 26.4341C1233.36 26.0972 1233.99 25.9287 1234.69 25.9287C1235.76 25.9287 1236.64 26.3022 1237.3 27.0493C1237.97 27.7964 1238.3 28.79 1238.3 30.0303V30.1255C1238.3 30.897 1238.15 31.5903 1237.86 32.2056C1237.56 32.8159 1237.14 33.292 1236.59 33.6338C1236.04 33.9756 1235.41 34.1465 1234.7 34.1465C1233.63 34.1465 1232.75 33.7729 1232.09 33.0259C1231.42 32.2788 1231.09 31.29 1231.09 30.0596V29.9644ZM1232.45 30.1255C1232.45 31.0044 1232.65 31.71 1233.06 32.2422C1233.47 32.7744 1234.02 33.0405 1234.7 33.0405C1235.39 33.0405 1235.94 32.772 1236.34 32.2349C1236.75 31.6929 1236.95 30.936 1236.95 29.9644C1236.95 29.0952 1236.74 28.3921 1236.33 27.855C1235.92 27.313 1235.37 27.042 1234.69 27.042C1234.02 27.042 1233.48 27.3081 1233.07 27.8403C1232.66 28.3726 1232.45 29.1343 1232.45 30.1255ZM1241.48 34H1240.12V26.0752H1241.48V34ZM1240.01 23.9731C1240.01 23.7534 1240.08 23.5679 1240.21 23.4165C1240.34 23.2651 1240.54 23.1895 1240.81 23.1895C1241.07 23.1895 1241.27 23.2651 1241.41 23.4165C1241.55 23.5679 1241.61 23.7534 1241.61 23.9731C1241.61 24.1929 1241.55 24.376 1241.41 24.5225C1241.27 24.6689 1241.07 24.7422 1240.81 24.7422C1240.54 24.7422 1240.34 24.6689 1240.21 24.5225C1240.08 24.376 1240.01 24.1929 1240.01 23.9731ZM1244.93 26.0752L1244.98 27.0713C1245.58 26.3096 1246.37 25.9287 1247.35 25.9287C1249.02 25.9287 1249.87 26.8735 1249.88 28.7632V34H1248.53V28.7559C1248.52 28.1846 1248.39 27.7622 1248.13 27.4888C1247.88 27.2153 1247.48 27.0786 1246.94 27.0786C1246.5 27.0786 1246.11 27.1958 1245.78 27.4302C1245.45 27.6646 1245.19 27.9722 1245.01 28.353V34H1243.65V26.0752H1244.93ZM1253.77 24.1562V26.0752H1255.24V27.1226H1253.77V32.0371C1253.77 32.3545 1253.83 32.5938 1253.96 32.7549C1254.09 32.9111 1254.32 32.9893 1254.64 32.9893C1254.79 32.9893 1255.01 32.96 1255.28 32.9014V34C1254.92 34.0977 1254.58 34.1465 1254.24 34.1465C1253.64 34.1465 1253.18 33.9634 1252.87 33.5972C1252.56 33.231 1252.41 32.7109 1252.41 32.0371V27.1226H1250.97V26.0752H1252.41V24.1562H1253.77ZM1261.45 31.8979C1261.45 31.5317 1261.31 31.2485 1261.03 31.0483C1260.76 30.8433 1260.28 30.6675 1259.59 30.521C1258.9 30.3745 1258.36 30.1987 1257.95 29.9937C1257.55 29.7886 1257.26 29.5444 1257.06 29.2612C1256.87 28.978 1256.78 28.6411 1256.78 28.2505C1256.78 27.6011 1257.05 27.0518 1257.6 26.6025C1258.15 26.1533 1258.85 25.9287 1259.71 25.9287C1260.6 25.9287 1261.33 26.1606 1261.89 26.6245C1262.45 27.0884 1262.73 27.6816 1262.73 28.4043H1261.37C1261.37 28.0332 1261.21 27.7134 1260.89 27.4448C1260.58 27.1763 1260.18 27.042 1259.71 27.042C1259.21 27.042 1258.83 27.1494 1258.55 27.3643C1258.27 27.5791 1258.13 27.8599 1258.13 28.2065C1258.13 28.5337 1258.26 28.7803 1258.52 28.9463C1258.78 29.1123 1259.24 29.271 1259.92 29.4224C1260.6 29.5737 1261.15 29.7544 1261.57 29.9644C1261.99 30.1743 1262.3 30.4282 1262.5 30.7261C1262.7 31.019 1262.8 31.3779 1262.8 31.8027C1262.8 32.5107 1262.52 33.0796 1261.95 33.5093C1261.39 33.9341 1260.65 34.1465 1259.75 34.1465C1259.11 34.1465 1258.55 34.0342 1258.06 33.8096C1257.58 33.585 1257.19 33.2725 1256.91 32.8721C1256.64 32.4668 1256.5 32.0298 1256.5 31.561H1257.86C1257.88 32.0151 1258.06 32.3765 1258.4 32.645C1258.74 32.9087 1259.19 33.0405 1259.75 33.0405C1260.26 33.0405 1260.67 32.938 1260.98 32.7329C1261.29 32.5229 1261.45 32.2446 1261.45 31.8979ZM1267.96 29.9717C1267.96 28.7559 1268.25 27.7793 1268.82 27.042C1269.4 26.2998 1270.15 25.9287 1271.09 25.9287C1272.01 25.9287 1272.75 26.2461 1273.29 26.8809V22.75H1274.65V34H1273.4L1273.34 33.1504C1272.79 33.8145 1272.04 34.1465 1271.07 34.1465C1270.15 34.1465 1269.4 33.7705 1268.82 33.0186C1268.25 32.2666 1267.96 31.2852 1267.96 30.0742V29.9717ZM1269.31 30.1255C1269.31 31.0239 1269.5 31.7271 1269.87 32.2349C1270.24 32.7427 1270.75 32.9966 1271.41 32.9966C1272.27 32.9966 1272.9 32.6108 1273.29 31.8394V28.1992C1272.89 27.4521 1272.26 27.0786 1271.42 27.0786C1270.76 27.0786 1270.24 27.335 1269.87 27.8477C1269.5 28.3604 1269.31 29.1196 1269.31 30.1255ZM1280.04 34.1465C1278.97 34.1465 1278.1 33.7949 1277.42 33.0918C1276.75 32.3838 1276.41 31.439 1276.41 30.2573V30.0083C1276.41 29.2222 1276.56 28.5215 1276.86 27.9062C1277.16 27.2861 1277.58 26.8027 1278.12 26.4561C1278.66 26.1045 1279.25 25.9287 1279.88 25.9287C1280.91 25.9287 1281.71 26.2681 1282.28 26.9468C1282.85 27.6255 1283.14 28.5972 1283.14 29.8618V30.4258H1277.77C1277.79 31.207 1278.01 31.8394 1278.45 32.3228C1278.89 32.8013 1279.44 33.0405 1280.12 33.0405C1280.6 33.0405 1281 32.9429 1281.33 32.7476C1281.67 32.5522 1281.96 32.2935 1282.21 31.9712L1283.03 32.6157C1282.37 33.6362 1281.37 34.1465 1280.04 34.1465ZM1279.88 27.042C1279.33 27.042 1278.87 27.2422 1278.5 27.6426C1278.13 28.0381 1277.9 28.5947 1277.81 29.3125H1281.78V29.21C1281.74 28.5215 1281.56 27.9893 1281.22 27.6133C1280.89 27.2324 1280.44 27.042 1279.88 27.042ZM1291.05 32.1616L1293.01 26.0752H1294.39L1291.55 34H1290.52L1287.65 26.0752H1289.03L1291.05 32.1616ZM1298.88 34.1465C1297.81 34.1465 1296.93 33.7949 1296.26 33.0918C1295.59 32.3838 1295.25 31.439 1295.25 30.2573V30.0083C1295.25 29.2222 1295.4 28.5215 1295.7 27.9062C1296 27.2861 1296.42 26.8027 1296.96 26.4561C1297.5 26.1045 1298.08 25.9287 1298.71 25.9287C1299.74 25.9287 1300.54 26.2681 1301.12 26.9468C1301.69 27.6255 1301.97 28.5972 1301.97 29.8618V30.4258H1296.6C1296.62 31.207 1296.85 31.8394 1297.29 32.3228C1297.73 32.8013 1298.28 33.0405 1298.96 33.0405C1299.43 33.0405 1299.84 32.9429 1300.17 32.7476C1300.5 32.5522 1300.79 32.2935 1301.04 31.9712L1301.87 32.6157C1301.21 33.6362 1300.21 34.1465 1298.88 34.1465ZM1298.71 27.042C1298.17 27.042 1297.71 27.2422 1297.34 27.6426C1296.97 28.0381 1296.74 28.5947 1296.65 29.3125H1300.62V29.21C1300.58 28.5215 1300.39 27.9893 1300.06 27.6133C1299.73 27.2324 1299.28 27.042 1298.71 27.042ZM1304.83 26.0752L1304.87 27.0713C1305.48 26.3096 1306.27 25.9287 1307.25 25.9287C1308.92 25.9287 1309.77 26.8735 1309.78 28.7632V34H1308.43V28.7559C1308.42 28.1846 1308.29 27.7622 1308.03 27.4888C1307.78 27.2153 1307.38 27.0786 1306.84 27.0786C1306.4 27.0786 1306.01 27.1958 1305.68 27.4302C1305.35 27.6646 1305.09 27.9722 1304.9 28.353V34H1303.55V26.0752H1304.83ZM1313.66 24.1562V26.0752H1315.14V27.1226H1313.66V32.0371C1313.66 32.3545 1313.73 32.5938 1313.86 32.7549C1313.99 32.9111 1314.22 32.9893 1314.53 32.9893C1314.69 32.9893 1314.91 32.96 1315.18 32.9014V34C1314.82 34.0977 1314.48 34.1465 1314.14 34.1465C1313.53 34.1465 1313.08 33.9634 1312.77 33.5972C1312.46 33.231 1312.31 32.7109 1312.31 32.0371V27.1226H1310.86V26.0752H1312.31V24.1562H1313.66ZM1320.02 34.1465C1318.95 34.1465 1318.07 33.7949 1317.4 33.0918C1316.72 32.3838 1316.39 31.439 1316.39 30.2573V30.0083C1316.39 29.2222 1316.54 28.5215 1316.83 27.9062C1317.14 27.2861 1317.56 26.8027 1318.09 26.4561C1318.64 26.1045 1319.22 25.9287 1319.85 25.9287C1320.88 25.9287 1321.68 26.2681 1322.25 26.9468C1322.83 27.6255 1323.11 28.5972 1323.11 29.8618V30.4258H1317.74C1317.76 31.207 1317.99 31.8394 1318.42 32.3228C1318.86 32.8013 1319.42 33.0405 1320.09 33.0405C1320.57 33.0405 1320.98 32.9429 1321.31 32.7476C1321.64 32.5522 1321.93 32.2935 1322.18 31.9712L1323.01 32.6157C1322.34 33.6362 1321.35 34.1465 1320.02 34.1465ZM1319.85 27.042C1319.3 27.042 1318.85 27.2422 1318.47 27.6426C1318.1 28.0381 1317.87 28.5947 1317.79 29.3125H1321.76V29.21C1321.72 28.5215 1321.53 27.9893 1321.2 27.6133C1320.87 27.2324 1320.42 27.042 1319.85 27.042Z" fill="#1A1818"/>
<path d="M1352.72 30.1255C1352.72 31.3315 1352.44 32.3032 1351.89 33.0405C1351.34 33.7778 1350.59 34.1465 1349.65 34.1465C1348.69 34.1465 1347.93 33.8413 1347.38 33.231V37.0469H1346.03V26.0752H1347.26L1347.33 26.9541C1347.88 26.2705 1348.65 25.9287 1349.63 25.9287C1350.58 25.9287 1351.33 26.2876 1351.88 27.0054C1352.44 27.7231 1352.72 28.7217 1352.72 30.001V30.1255ZM1351.36 29.9717C1351.36 29.0781 1351.17 28.3726 1350.79 27.855C1350.41 27.3374 1349.89 27.0786 1349.23 27.0786C1348.41 27.0786 1347.79 27.4424 1347.38 28.1699V31.9565C1347.79 32.6792 1348.41 33.0405 1349.24 33.0405C1349.89 33.0405 1350.41 32.7842 1350.79 32.2715C1351.17 31.7539 1351.36 30.9873 1351.36 29.9717ZM1359.34 34C1359.26 33.8438 1359.2 33.5654 1359.15 33.165C1358.52 33.8193 1357.77 34.1465 1356.89 34.1465C1356.11 34.1465 1355.47 33.9268 1354.97 33.4873C1354.47 33.043 1354.22 32.4814 1354.22 31.8027C1354.22 30.9775 1354.53 30.3379 1355.16 29.8838C1355.79 29.4248 1356.67 29.1953 1357.81 29.1953H1359.13V28.5728C1359.13 28.0991 1358.99 27.7231 1358.7 27.4448C1358.42 27.1616 1358 27.02 1357.45 27.02C1356.97 27.02 1356.56 27.1421 1356.24 27.3862C1355.91 27.6304 1355.74 27.9258 1355.74 28.2725H1354.38C1354.38 27.877 1354.52 27.4961 1354.8 27.1299C1355.08 26.7588 1355.46 26.4658 1355.94 26.251C1356.43 26.0361 1356.96 25.9287 1357.53 25.9287C1358.44 25.9287 1359.16 26.1582 1359.68 26.6172C1360.2 27.0713 1360.46 27.6987 1360.48 28.4995V32.147C1360.48 32.8745 1360.58 33.4531 1360.76 33.8828V34H1359.34ZM1357.09 32.9673C1357.52 32.9673 1357.92 32.8574 1358.3 32.6377C1358.68 32.418 1358.96 32.1323 1359.13 31.7808V30.1548H1358.07C1356.41 30.1548 1355.58 30.6406 1355.58 31.6123C1355.58 32.0371 1355.72 32.3691 1356 32.6084C1356.28 32.8477 1356.65 32.9673 1357.09 32.9673ZM1363.89 26.0752L1363.93 27.0713C1364.54 26.3096 1365.33 25.9287 1366.31 25.9287C1367.98 25.9287 1368.83 26.8735 1368.84 28.7632V34H1367.49V28.7559C1367.48 28.1846 1367.35 27.7622 1367.09 27.4888C1366.84 27.2153 1366.44 27.0786 1365.9 27.0786C1365.46 27.0786 1365.07 27.1958 1364.74 27.4302C1364.41 27.6646 1364.15 27.9722 1363.96 28.353V34H1362.61V26.0752H1363.89ZM1372.36 34H1371V26.0752H1372.36V34ZM1370.89 23.9731C1370.89 23.7534 1370.96 23.5679 1371.09 23.4165C1371.23 23.2651 1371.43 23.1895 1371.69 23.1895C1371.95 23.1895 1372.15 23.2651 1372.29 23.4165C1372.43 23.5679 1372.5 23.7534 1372.5 23.9731C1372.5 24.1929 1372.43 24.376 1372.29 24.5225C1372.15 24.6689 1371.95 24.7422 1371.69 24.7422C1371.43 24.7422 1371.23 24.6689 1371.09 24.5225C1370.96 24.376 1370.89 24.1929 1370.89 23.9731ZM1377.82 34.1465C1376.75 34.1465 1375.87 33.7949 1375.2 33.0918C1374.52 32.3838 1374.19 31.439 1374.19 30.2573V30.0083C1374.19 29.2222 1374.34 28.5215 1374.63 27.9062C1374.94 27.2861 1375.36 26.8027 1375.89 26.4561C1376.44 26.1045 1377.02 25.9287 1377.65 25.9287C1378.68 25.9287 1379.48 26.2681 1380.05 26.9468C1380.62 27.6255 1380.91 28.5972 1380.91 29.8618V30.4258H1375.54C1375.56 31.207 1375.79 31.8394 1376.22 32.3228C1376.66 32.8013 1377.22 33.0405 1377.89 33.0405C1378.37 33.0405 1378.78 32.9429 1379.11 32.7476C1379.44 32.5522 1379.73 32.2935 1379.98 31.9712L1380.81 32.6157C1380.14 33.6362 1379.15 34.1465 1377.82 34.1465ZM1377.65 27.042C1377.1 27.042 1376.65 27.2422 1376.27 27.6426C1375.9 28.0381 1375.67 28.5947 1375.59 29.3125H1379.56V29.21C1379.52 28.5215 1379.33 27.9893 1379 27.6133C1378.67 27.2324 1378.22 27.042 1377.65 27.042ZM1386.32 27.291C1386.11 27.2568 1385.89 27.2397 1385.65 27.2397C1384.76 27.2397 1384.16 27.6182 1383.84 28.375V34H1382.49V26.0752H1383.8L1383.83 26.9907C1384.27 26.2827 1384.9 25.9287 1385.72 25.9287C1385.98 25.9287 1386.18 25.9629 1386.32 26.0312V27.291Z" fill="#1A1818"/>
<path d="M1402.57 29.4517C1402.57 31.0386 1402.3 32.2178 1401.76 32.9893C1401.22 33.7607 1400.37 34.1465 1399.22 34.1465C1398.08 34.1465 1397.24 33.7705 1396.69 33.0186C1396.15 32.2617 1395.86 31.1338 1395.84 29.6348V27.8257C1395.84 26.2583 1396.11 25.0938 1396.66 24.332C1397.2 23.5703 1398.05 23.1895 1399.2 23.1895C1400.35 23.1895 1401.2 23.5581 1401.74 24.2954C1402.28 25.0278 1402.56 26.1606 1402.57 27.6938V29.4517ZM1401.22 27.5986C1401.22 26.4512 1401.06 25.6162 1400.73 25.0938C1400.41 24.5664 1399.9 24.3027 1399.2 24.3027C1398.51 24.3027 1398.01 24.564 1397.69 25.0864C1397.37 25.6089 1397.21 26.4121 1397.2 27.4961V29.6641C1397.2 30.8164 1397.36 31.6685 1397.7 32.2202C1398.03 32.7671 1398.54 33.0405 1399.22 33.0405C1399.89 33.0405 1400.38 32.7817 1400.71 32.2642C1401.03 31.7466 1401.2 30.9312 1401.22 29.8179V27.5986Z" fill="#1A1818"/>
<path d="M1408.15 29.7446C1408.15 30.8335 1408.01 31.8784 1407.72 32.8794C1407.44 33.8755 1407 34.7959 1406.41 35.6406C1405.82 36.4854 1405.21 37.0859 1404.56 37.4424L1404.28 36.6147C1405.03 36.0386 1405.63 35.145 1406.09 33.9341C1406.55 32.7183 1406.78 31.3706 1406.79 29.8911V29.6567C1406.79 28.6313 1406.68 27.6792 1406.47 26.8003C1406.25 25.9165 1405.95 25.1255 1405.57 24.4272C1405.19 23.729 1404.76 23.1846 1404.28 22.7939L1404.56 21.9663C1405.21 22.3228 1405.82 22.9185 1406.4 23.7534C1406.99 24.5884 1407.43 25.5088 1407.71 26.5146C1408.01 27.5205 1408.15 28.5972 1408.15 29.7446Z" fill="#1A1818"/>
<path d="M1391.97 29.6714C1391.97 28.5679 1392.12 27.5083 1392.41 26.4927C1392.71 25.4771 1393.15 24.5542 1393.74 23.7241C1394.33 22.894 1394.93 22.3081 1395.56 21.9663L1395.84 22.8599C1395.13 23.4067 1394.54 24.2417 1394.08 25.3647C1393.63 26.4878 1393.38 27.7451 1393.34 29.1367L1393.33 29.7593C1393.33 31.644 1393.67 33.2798 1394.36 34.6665C1394.78 35.4966 1395.27 36.146 1395.84 36.6147L1395.56 37.4424C1394.91 37.0811 1394.29 36.4756 1393.7 35.626C1392.55 33.9658 1391.97 31.981 1391.97 29.6714Z" fill="#1A1818"/>
<path d="M1070.58 33V26.5811H1069.41V25.6035H1070.58V24.8447C1070.58 24.0518 1070.79 23.4388 1071.21 23.0059C1071.64 22.5729 1072.24 22.3564 1073.01 22.3564C1073.3 22.3564 1073.59 22.3952 1073.88 22.4727L1073.81 23.498C1073.6 23.457 1073.37 23.4365 1073.13 23.4365C1072.72 23.4365 1072.4 23.5573 1072.18 23.7988C1071.96 24.0358 1071.84 24.3776 1071.84 24.8242V25.6035H1073.42V26.5811H1071.84V33H1070.58ZM1078.4 26.7383C1078.21 26.7064 1078 26.6904 1077.78 26.6904C1076.95 26.6904 1076.39 27.0436 1076.09 27.75V33H1074.82V25.6035H1076.05L1076.08 26.458C1076.49 25.7972 1077.08 25.4668 1077.84 25.4668C1078.08 25.4668 1078.27 25.4987 1078.4 25.5625V26.7383Z" fill="#1A1818"/>
<path d="M1096.31 34.1465C1095.24 34.1465 1094.37 33.7949 1093.69 33.0918C1093.02 32.3838 1092.68 31.439 1092.68 30.2573V30.0083C1092.68 29.2222 1092.83 28.5215 1093.13 27.9062C1093.43 27.2861 1093.85 26.8027 1094.39 26.4561C1094.93 26.1045 1095.52 25.9287 1096.15 25.9287C1097.18 25.9287 1097.98 26.2681 1098.55 26.9468C1099.12 27.6255 1099.4 28.5972 1099.4 29.8618V30.4258H1094.04C1094.06 31.207 1094.28 31.8394 1094.72 32.3228C1095.16 32.8013 1095.71 33.0405 1096.39 33.0405C1096.87 33.0405 1097.27 32.9429 1097.6 32.7476C1097.94 32.5522 1098.23 32.2935 1098.47 31.9712L1099.3 32.6157C1098.64 33.6362 1097.64 34.1465 1096.31 34.1465ZM1096.15 27.042C1095.6 27.042 1095.14 27.2422 1094.77 27.6426C1094.4 28.0381 1094.17 28.5947 1094.08 29.3125H1098.05V29.21C1098.01 28.5215 1097.83 27.9893 1097.49 27.6133C1097.16 27.2324 1096.71 27.042 1096.15 27.042ZM1102.26 26.0752L1102.31 27.0713C1102.91 26.3096 1103.7 25.9287 1104.68 25.9287C1106.35 25.9287 1107.2 26.8735 1107.21 28.7632V34H1105.86V28.7559C1105.85 28.1846 1105.72 27.7622 1105.46 27.4888C1105.21 27.2153 1104.81 27.0786 1104.27 27.0786C1103.83 27.0786 1103.44 27.1958 1103.11 27.4302C1102.78 27.6646 1102.52 27.9722 1102.33 28.353V34H1100.98V26.0752H1102.26Z" fill="#1A1818" fill-opacity="0.25"/>
<g clip-path="url(#clip0_3_306)">
<path d="M24.576 38.008C24.475 38.0177 24.3733 38.0008 24.2809 37.9588C24.1885 37.9169 24.1087 37.8515 24.0495 37.7691C23.9903 37.6868 23.9538 37.5903 23.9435 37.4894C23.9332 37.3885 23.9496 37.2866 23.991 37.194L26.083 30.979C26.235 30.531 26.474 30.533 26.618 30.984L28.583 37.19C28.6221 37.2842 28.6362 37.3869 28.6241 37.4881C28.6119 37.5894 28.5738 37.6858 28.5135 37.768C28.4531 37.8503 28.3726 37.9156 28.2797 37.9576C28.1868 37.9996 28.0846 38.017 27.983 38.008H24.576ZM29.252 19.827C29.1556 19.5976 28.9963 19.4001 28.7924 19.2573C28.5886 19.1145 28.3486 19.0322 28.1 19.02H24.247C23.9529 19.0037 23.6579 19.0218 23.368 19.074C23.356 19.104 23.348 19.516 23.348 19.988V43.175C23.3485 43.4028 23.4392 43.621 23.6001 43.7822C23.7611 43.9433 23.9792 44.0342 24.207 44.035H29.875C30.1211 44.046 30.3585 44.1298 30.5569 44.2758C30.7554 44.4218 30.9061 44.6233 30.99 44.855L31.841 47.589C31.9247 47.821 32.0753 48.0229 32.2737 48.1692C32.4722 48.3156 32.7097 48.3997 32.956 48.411H38.793C38.893 48.4213 38.994 48.4047 39.0855 48.3629C39.1769 48.3211 39.2555 48.2556 39.3132 48.1732C39.3708 48.0908 39.4053 47.9945 39.4132 47.8942C39.4211 47.7939 39.402 47.6934 39.358 47.603L29.252 19.827Z" fill="#1A1818"/>
<path d="M55.272 44.026C55.0116 44.0111 54.7578 43.9383 54.5291 43.8129C54.3004 43.6875 54.1025 43.5126 53.95 43.301L46.861 32.169C46.606 31.769 46.399 31.83 46.399 32.303V43.168C46.3985 43.3957 46.3078 43.6138 46.1468 43.7748C45.9858 43.9358 45.7677 44.0265 45.54 44.027H41.102C40.8744 44.0262 40.6564 43.9355 40.4955 43.7745C40.3345 43.6136 40.2438 43.3956 40.243 43.168V19.859C40.2438 19.6314 40.3345 19.4134 40.4955 19.2525C40.6564 19.0915 40.8744 19.0008 41.102 19H44.765C45.0251 19.0151 45.2785 19.088 45.5069 19.2134C45.7352 19.3389 45.9327 19.5136 46.085 19.725L53.176 30.859C53.43 31.259 53.637 31.197 53.637 30.725V19.859C53.6378 19.6311 53.7288 19.4127 53.8902 19.2518C54.0515 19.0908 54.2701 19.0003 54.498 19H58.933C59.1607 19.0005 59.3788 19.0912 59.5398 19.2522C59.7008 19.4132 59.7915 19.6313 59.792 19.859V43.168C59.7915 43.3957 59.7008 43.6138 59.5398 43.7748C59.3788 43.9358 59.1607 44.0265 58.933 44.027L55.272 44.026Z" fill="#1A1818"/>
<path d="M77.716 44.042C77.4556 44.0272 77.2018 43.9543 76.9732 43.8287C76.7446 43.7031 76.5471 43.5279 76.395 43.316L69.303 32.185C69.05 31.785 68.842 31.846 68.842 32.32V43.182C68.8415 43.4096 68.751 43.6277 68.5902 43.7888C68.4295 43.9499 68.2116 44.0409 67.984 44.042H63.55C63.3222 44.0412 63.1039 43.9503 62.9428 43.7892C62.7817 43.6281 62.6908 43.4098 62.69 43.182V19.875C62.6908 19.6473 62.7817 19.4291 62.9428 19.2681C63.104 19.1072 63.3223 19.0165 63.55 19.016H67.211C67.471 19.0308 67.7244 19.1036 67.9526 19.2291C68.1809 19.3545 68.3781 19.5294 68.53 19.741L75.618 30.875C75.873 31.275 76.081 31.213 76.081 30.74V19.875C76.0815 19.6473 76.1722 19.4292 76.3332 19.2682C76.4942 19.1072 76.7123 19.0165 76.94 19.016H81.38C81.6075 19.0171 81.8254 19.1079 81.9862 19.2688C82.1471 19.4296 82.2379 19.6475 82.239 19.875V43.182C82.2382 43.4097 82.1475 43.6278 81.9866 43.7889C81.8257 43.95 81.6077 44.0409 81.38 44.042H77.716Z" fill="#1A1818"/>
<path d="M14.813 44.042C14.5556 44.0275 14.3053 43.9519 14.0829 43.8215C13.8605 43.6911 13.6723 43.5096 13.534 43.292L8.611 34.528C8.57071 34.4356 8.50657 34.3556 8.42516 34.2962C8.34375 34.2368 8.248 34.2002 8.14774 34.19C8.04748 34.1798 7.94631 34.1965 7.85463 34.2383C7.76294 34.2801 7.68403 34.3456 7.626 34.428L6.644 35.557C6.30592 35.9895 6.10934 36.5157 6.081 37.064V43.182C6.08047 43.4099 5.9897 43.6284 5.82853 43.7895C5.66736 43.9507 5.44892 44.0415 5.221 44.042H0.859C0.631331 44.0409 0.413302 43.95 0.252407 43.7889C0.0915125 43.6278 0.000789004 43.4097 0 43.182V19.875C0.000790665 19.6474 0.0915464 19.4294 0.252469 19.2685C0.413392 19.1075 0.631423 19.0168 0.859 19.016H5.22C5.44775 19.0165 5.66604 19.1072 5.82718 19.2681C5.98831 19.4291 6.07921 19.6473 6.08 19.875V27.014C6.08 27.487 6.324 27.574 6.622 27.208L12.774 19.68C13.1368 19.2853 13.6388 19.0472 14.174 19.016H19.98C20.453 19.016 20.59 19.316 20.285 19.672L12.851 28.482C12.6994 28.6796 12.6078 28.9166 12.5871 29.1648C12.5664 29.413 12.6173 29.662 12.734 29.882L20.687 43.303C20.927 43.71 20.738 44.043 20.266 44.043L14.813 44.042Z" fill="#1A1818"/>
</g>
<defs>
<clipPath id="clip0_3_306">
<rect width="82.235" height="29.411" fill="white" transform="translate(0 19)"/>
</clipPath>
</defs>
</svg>
